<svg width="235" height="256" viewBox="0 0 235 256" fill="none" xmlns="http://www.w3.org/2000/svg">
<path d="M197.453 95.25C202.253 94.39 222.333 94.3 226.993 95.25C230.633 95.99 234.083 98.9 234.483 102.76L234.723 245.52C234.573 249.48 232.093 253.9 228.013 254.81C224.323 255.63 200.123 255.63 196.433 254.81C193.053 254.05 190.493 250.61 189.963 247.28L189.723 104.52C190.093 99.56 192.423 96.16 197.463 95.26L197.453 95.25Z" fill="#EE4D2D"/>
<path d="M231.703 62.01C228.633 60.71 216.033 49.97 213.713 51.44C212.653 52.11 202.893 66.77 200.693 69.48C160.473 118.99 101.733 155.1 39.7326 170.52C35.0826 171.68 3.19258 178.26 1.72258 177C0.252582 175.74 3.38259 174.34 4.15259 173.94C11.0026 170.48 22.2726 167.89 29.9626 164.75C84.9626 142.31 138.423 105.7 173.543 57.33C176.533 53.22 186.013 39.95 187.303 36.03C187.693 34.85 187.993 34.18 187.253 33.01C186.183 31.32 175.943 26.07 173.373 23.84C172.343 22.95 171.283 22.86 171.713 21.01L225.183 0L231.703 62V62.01Z" fill="#EE4D2D"/>
<path d="M129.033 151.33C130.153 150.1 132.483 149.18 134.173 148.97C139.293 148.35 160.553 148.16 165.193 149.04C167.773 149.53 170.063 152.74 171.273 154.96L171.743 246.54C171.773 249.69 168.703 253.67 165.773 254.57C162.353 255.62 138.433 255.62 134.273 254.96C128.713 254.08 127.133 249.46 126.673 244.56C124.123 217.29 128.703 186.16 126.663 158.47C126.683 156.26 127.573 152.94 129.033 151.34V151.33Z" fill="#EE4D2D"/>
<path d="M68.4026 177.2C70.7026 176.51 100.203 176.45 103.193 177.03C106.963 177.76 108.433 183.06 108.763 186.46C110.603 205.4 107.273 227.27 108.733 246.53C108.943 249.19 105.343 254.12 103.003 254.8C100.153 255.63 74.9726 255.53 71.2626 254.95C65.7326 254.08 64.1326 249.49 63.6626 244.55C62.4126 231.18 62.1126 198.52 63.6826 185.49C63.9826 183.03 65.8826 177.96 68.3926 177.2H68.4026Z" fill="#EE4D2D"/>
<path d="M5.42259 196.22C8.71259 195.27 33.8026 195.46 38.2326 195.99C43.1326 196.57 45.1626 199.67 45.7426 204.48C46.7826 213.23 46.7726 237.76 45.7426 246.53C45.1826 251.29 42.0026 254.47 37.2426 255.03C31.1926 255.74 15.2426 255.74 9.19258 255.03C3.14258 254.32 1.21259 250.25 0.672587 244.55C-0.227413 234.95 -0.237426 215.08 0.722574 205.53C1.03257 202.45 2.02259 197.21 5.42259 196.23V196.22Z" fill="#EE4D2D"/>
</svg>
