<svg width="1569" height="473" viewBox="0 0 1569 473" fill="none" xmlns="http://www.w3.org/2000/svg">
<path d="M906.666 51.6026V16.0221C906.705 10.6062 910.788 6.98427 915.726 6.98427H1075.28C1080.42 6.98427 1084.5 10.7092 1084.5 15.9902V46.5592C1084.44 51.605 1080.12 58.3173 1072.48 68.9431L989.762 186.948C1020.46 186.23 1052.94 190.815 1080.83 206.504C1087.11 210.052 1088.82 215.225 1089.3 220.369V258.42C1089.3 263.679 1083.55 269.754 1077.58 266.59C1028.41 240.8 963.234 237.996 908.933 266.899C903.37 269.872 897.582 263.919 897.582 258.66V222.462C897.582 216.693 897.675 206.8 903.507 197.997L999.256 60.6013H915.903C910.81 60.5988 906.725 56.967 906.666 51.6026ZM324.606 274.082H276.054C271.435 273.8 267.713 270.325 267.369 265.887L267.414 16.6299C267.414 11.6601 271.572 7.65331 276.77 7.65331L321.979 7.63611C326.716 7.89588 330.502 11.4738 330.813 16.0221V48.5761H331.703C343.459 17.1004 365.696 2.38936 395.576 2.38936C425.961 2.38936 444.941 17.1004 458.574 48.5761C470.366 17.1004 497.078 2.38936 525.657 2.38936C546.061 2.38936 568.244 10.7974 581.859 29.6818C597.286 50.6052 594.098 81.0762 594.098 107.768L594.078 265.095C594.078 270.095 589.846 274.079 584.695 274.079H536.219C531.325 273.797 527.502 269.923 527.502 265.147L527.483 132.97C527.483 122.492 528.37 96.2969 526.101 86.2861C522.449 69.5117 511.581 64.7918 497.534 64.7918C485.803 64.7918 473.54 72.6632 468.538 85.2545C463.578 97.8531 464.009 118.786 464.009 132.97V265.09C464.009 270.09 459.814 274.074 454.643 274.074H406.158C401.276 273.793 397.428 269.918 397.428 265.142L397.367 132.965C397.367 105.149 401.923 64.2649 367.497 64.2649C332.571 64.2649 333.94 104.163 333.94 132.965L333.921 265.085C333.916 270.097 329.804 274.082 324.606 274.082ZM1221.91 2.39183C1293.9 2.39183 1332.95 64.2772 1332.95 142.944C1332.95 218.95 1289.82 279.343 1221.91 279.343C1151.19 279.343 1112.64 217.345 1112.64 140.29C1112.64 62.7162 1151.62 2.39183 1221.91 2.39183ZM1222.37 53.2421C1186.52 53.2421 1184.25 102.075 1184.25 132.399C1184.25 162.834 1183.79 227.841 1221.91 227.841C1259.44 227.841 1261.22 175.415 1261.22 143.506C1261.22 122.499 1260.34 97.336 1253.98 77.3905C1248.56 60.0548 1237.68 53.2421 1222.37 53.2421ZM1426.35 274.082H1377.95C1373.06 273.8 1369.23 269.925 1369.23 265.149L1369.13 15.8016C1369.56 11.2287 1373.58 7.65084 1378.48 7.65084L1423.56 7.63364C1427.82 7.8591 1431.31 10.7582 1432.19 14.6351V52.7324H1433.11C1446.69 18.6737 1465.65 2.3869 1499.19 2.3869C1520.97 2.3869 1542.32 10.2681 1555.91 31.7967C1568.53 51.6614 1568.53 85.2569 1568.53 109.368V266.208C1567.96 270.673 1563.98 274.079 1559.32 274.079H1510.57C1506.14 273.817 1502.46 270.462 1501.91 266.208V130.882C1501.91 103.656 1505.13 63.7381 1471.53 63.7381C1459.73 63.7381 1448.97 71.629 1443.5 83.7008C1436.71 98.9191 1435.82 114.081 1435.82 130.885V265.098C1435.7 270.097 1431.52 274.082 1426.35 274.082ZM229.461 228.348C220.629 216.049 211.182 206.121 211.182 183.365V107.707C211.182 75.6971 213.473 46.2774 189.822 24.2023C171.18 6.30545 140.31 0 116.669 0C70.4625 0 18.9359 17.245 8.11153 74.337C6.95974 80.4439 11.3807 83.6126 15.3654 84.5095L62.4221 89.6092C66.7964 89.3838 70.0092 85.0241 70.8522 80.6596C74.9006 60.9689 91.3761 51.4874 109.893 51.4874C119.847 51.4874 131.204 55.1879 137.136 64.1204C143.947 74.0821 143.033 87.781 143.033 99.3455V105.597C114.855 108.766 78.0595 110.858 51.757 122.435C21.3228 135.605 0 162.363 0 201.82C0 252.313 31.7698 277.542 72.6117 277.542C107.202 277.542 126.016 269.381 152.693 242.226C161.515 254.989 164.395 261.147 180.51 274.609C184.134 276.527 188.761 276.375 191.989 273.464L192.096 273.582C201.798 264.934 219.445 249.617 229.309 241.317C233.247 238.048 232.551 232.75 229.461 228.348ZM133.936 206.535C126.202 220.134 113.968 228.557 100.35 228.557C81.7158 228.557 70.8203 214.355 70.8203 193.385C70.8203 152.053 107.932 144.554 143.04 144.554V155.043C143.04 173.91 143.484 189.7 133.936 206.535ZM865.915 228.348C857.014 216.049 847.585 206.121 847.585 183.365V107.707C847.585 75.6971 849.859 46.2774 826.205 24.2023C807.647 6.30545 776.732 0 753.138 0C706.941 0 655.385 17.245 644.571 74.337C643.419 80.4439 647.84 83.6126 651.817 84.5095L698.844 89.6092C703.287 89.3838 706.476 85.0241 707.304 80.6596C711.377 60.9689 727.781 51.4874 746.325 51.4874C756.304 51.4874 767.685 55.1879 773.559 64.1204C780.352 74.0821 779.445 87.781 779.445 99.3455V105.597C751.305 108.766 714.528 110.858 688.209 122.435C657.775 135.605 636.422 162.363 636.422 201.82C636.422 252.313 668.172 277.542 709.071 277.542C743.571 277.542 762.484 269.381 789.132 242.226C797.935 254.989 800.837 261.147 816.949 274.609C820.601 276.527 825.181 276.375 828.391 273.464L828.497 273.582C838.221 264.934 855.863 249.617 865.778 241.317C869.728 238.048 869.052 232.75 865.915 228.348ZM770.356 206.535C762.683 220.134 750.4 228.557 736.77 228.557C718.136 228.557 707.287 214.355 707.287 193.385C707.287 152.053 744.35 144.554 779.45 144.554V155.043C779.45 173.91 779.921 189.7 770.356 206.535Z" fill="white"/>
<path d="M971.498 370.94C878.881 437.048 749.874 472.751 636.057 472.751C476.628 472.751 334.524 415.041 225.038 316.173C214.912 307.028 221.45 296.301 234.041 303.538C353.146 372.418 495.887 412.715 645.659 412.715C746.661 412.715 853.941 392.603 955.89 349.232C978.18 339.731 987.419 359.562 971.498 370.94Z" fill="#F9A51B"/>
<path d="M1011.07 326.321C999.358 311.358 933.952 319.246 904.566 322.716C895.722 323.802 894.281 316.021 902.344 310.397C954.512 273.93 1040.03 284.546 1049.92 296.583C1059.92 308.966 1047.28 394.769 998.403 435.727C990.867 442.069 983.792 438.628 987.11 430.328C998.079 402.812 1022.73 341.231 1011.07 326.321Z" fill="#F9A51B"/>
</svg>
