<svg width="3183" height="3592" viewBox="0 0 3183 3592" fill="none" xmlns="http://www.w3.org/2000/svg">
<path fill-rule="evenodd" clip-rule="evenodd" d="M1710.12 14.3875C1710.12 14.3875 1877.09 56.4605 1996.24 133.406C2066.14 178.543 2122.54 236.344 2155.04 266.83C2196.11 305.345 2243.91 379.185 2243.91 379.185C2243.91 379.185 2274.34 427.074 2287.23 457.017C2306.3 501.31 2346.96 579.857 2368.39 655.968C2392.86 742.867 2401.6 823.632 2401.6 823.632C2550.1 829.435 2765.77 815.854 2946.81 813.802C3112.75 811.922 3192.59 831.529 3181.13 1024.11L3093.5 2832.19C3093.5 3208.17 3094.79 3591.4 2718.82 3591.4H450.04C74.065 3591.4 69.215 3240.47 69.215 2864.49L0 1065.17C0 793.245 86.316 812.076 349.151 815.276C449.712 816.5 630.456 818.135 772.806 824.519C772.806 824.519 798.072 702.614 813.638 643.368C831.679 574.701 861.025 514.173 886.009 450.913C914.497 378.782 1041.21 237.536 1041.21 237.536C1041.21 237.536 1157.16 135.5 1210.49 104.314C1273.12 67.6986 1294.22 61.0826 1320.55 50.0636C1345.98 39.4206 1375.89 30.1156 1407.77 21.1496C1471.14 3.32755 1501.49 0.859533 1527.84 0.189533C1539.94 -0.118467 1576.07 0.0415537 1576.07 0.0415537C1576.07 0.0415537 1614.38 1.96854 1629.5 0.000538065" fill="url(#paint0_linear_79_3)"/>
<path fill-rule="evenodd" clip-rule="evenodd" d="M2137.56 2633.86C2117.81 2797.41 2018.63 2928.51 1865.02 2994.07C1779.45 3030.7 1664.7 3050.46 1573.77 3044.18C1431.93 3038.81 1298.74 3004.27 1176.01 2941.21C1132.04 2918.7 1066.75 2873.69 1016.51 2831.56C1003.82 2820.96 1002.25 2814.16 1010.62 2802.12C1015.2 2795.32 1023.58 2783.02 1042.16 2755.8C1068.98 2716.42 1072.25 2711.58 1075.39 2706.87C1083.89 2693.78 1097.89 2692.61 1111.63 2703.47C1113.07 2704.51 1113.07 2704.51 1114.25 2705.43C1116.47 2707.13 1116.47 2707.13 1121.84 2711.32C1127.2 2715.5 1130.34 2717.99 1131.65 2718.9C1264.06 2822.66 1418.33 2882.46 1574.03 2888.48C1790.7 2885.47 1946.54 2788.12 1974.41 2638.57C2005.15 2473.97 1875.88 2331.75 1623.1 2252.45C1543.94 2227.73 1344.14 2147.65 1307.24 2126.06C1134.27 2024.52 1053.28 1891.59 1064.79 1727.25C1082.46 1499.59 1293.77 1329.75 1560.95 1328.58C1680.41 1328.45 1799.6 1353.18 1914.09 1401.45C1954.65 1418.6 2027 1457.98 2051.99 1476.56C2066.39 1487.16 2069.27 1499.45 2061.02 1512.8C2056.31 1520.52 2048.72 1532.69 2032.76 1558.2L2032.5 1558.46C2011.44 1591.96 2010.78 1593.01 2005.94 1600.86C1997.57 1613.68 1987.62 1614.86 1972.58 1605.31C1849.98 1523.01 1714.16 1481.53 1564.74 1478.52C1378.82 1482.18 1239.47 1592.88 1230.31 1743.74C1227.82 1879.95 1330.01 1979.25 1550.61 2055.14C1998.48 2199.07 2169.88 2367.72 2137.57 2633.86L2137.56 2633.86ZM1584.5 282.756C1876.01 282.756 2113.75 559.489 2124.88 905.827H1044.12C1055.24 559.489 1292.85 282.756 1584.5 282.756ZM3093.5 970.984C3093.5 935.005 3064.58 905.827 3028.86 905.827H2328.33C2311.19 448.535 1984.74 83.8766 1584.5 83.8766C1184.25 83.8766 857.798 448.535 840.661 905.827H139.215C104.019 906.481 75.6227 935.398 75.6227 970.984C75.6227 972.685 75.7557 974.388 75.8857 976.089H75.3647L175.327 3180.39C175.327 3186.53 175.59 3192.69 176.11 3198.97C176.11 3200.4 176.243 3201.71 176.372 3203.15L176.635 3207.86L176.898 3208C192.073 3361.47 303.423 3484.98 454.673 3490.74L455.069 3491.01H2691.29L2691.42 3490.87C2845.42 3486.69 2970.24 3361.47 2983.33 3206.16L2983.46 3206.03L2983.59 3203.94C2983.72 3202.37 2983.85 3200.8 2983.85 3199.1C2984.11 3195.17 2984.38 3191.25 2984.38 3187.45L3093.5 974.389H3093.37C3093.5 973.21 3093.5 972.164 3093.5 970.984H3093.5Z" fill="white"/>
<defs>
<linearGradient id="paint0_linear_79_3" x1="-611.403" y1="1814.87" x2="3780.26" y2="1814.87" gradientUnits="userSpaceOnUse">
<stop stop-color="#FF6633"/>
<stop offset="1" stop-color="#F43D2D"/>
</linearGradient>
</defs>
</svg>
